<svg width="38" height="41" viewBox="0 0 38 41" fill="none" xmlns="http://www.w3.org/2000/svg">
<path fill-rule="evenodd" clip-rule="evenodd" d="M32.3334 0.791992C35.0949 0.791992 37.3334 3.19847 37.3334 6.16699V34.8337C37.3334 37.8023 35.0949 40.2087 32.3334 40.2087H5.66669C2.90527 40.2087 0.666687 37.8023 0.666687 34.8337V6.16699C0.666687 3.19847 2.90527 0.791992 5.66669 0.791992H32.3334ZM32.3334 4.37533C33.2539 4.37533 34 5.17749 34 6.16699V34.8337C34 35.8232 33.2539 36.6253 32.3334 36.6253H24V24.0835H27.4604C28.1777 24.0835 28.8145 23.5901 29.0415 22.8583L29.7799 20.4772C30.0497 19.607 29.4472 18.7085 28.594 18.7085H24V15.1252C24 14.2293 24.8334 13.3335 25.6667 13.3335H29C29.9205 13.3335 30.6667 12.5314 30.6667 11.5418V10.3128C30.6667 9.73404 30.3229 9.21515 29.8022 9.06747C27.6175 8.44769 25.6667 8.44769 25.6667 8.44769C21.5 8.44769 19 11.5418 19 14.2293V18.7085H15.6667C14.7462 18.7085 14 19.5106 14 20.5001V22.2918C14 23.2814 14.7462 24.0835 15.6667 24.0835H19V36.6253H5.66669C4.74622 36.6253 4.00002 35.8232 4.00002 34.8337V6.16699C4.00002 5.17749 4.74622 4.37533 5.66669 4.37533H32.3334Z" fill="#B2B377"/>
</svg>
