<svg width="367" height="367" viewBox="0 0 367 367" fill="none" xmlns="http://www.w3.org/2000/svg">
<g clip-path="url(#clip0_59_1091)">
<path d="M175.306 66.0074L288.369 130.529L259.686 180.211C259.686 180.211 269.841 193.87 270.857 195.878C273.882 201.945 280.389 207.425 270.928 223.812L228.57 297.178C223.178 306.516 211.251 309.693 201.935 304.315L68.2569 227.136C58.9189 221.744 55.742 209.817 61.1202 200.501L101.123 131.214C101.83 129.99 103.248 127.848 104.656 125.095C107.738 119.077 112.182 113.997 120.574 113.07C125.449 112.531 130.814 113.392 135.522 113.874C141.921 114.516 146.976 115.077 146.976 115.077L175.306 66.0074Z" fill="white"/>
<path d="M141.244 125.005L130.209 123.862L130.092 123.855C125.583 123.186 122.486 123.211 120.283 123.782L131.479 141.972L141.267 125.019L141.244 125.005ZM260.291 198.844L253.954 190.139L244.218 207.002L265.219 207.582C264.478 205.462 262.893 202.764 260.291 198.844Z" fill="#E6E6E6"/>
<path d="M92.6355 203.858L117.878 160.138C118.597 158.891 118.166 157.282 116.92 156.562C115.673 155.843 114.064 156.274 113.345 157.52L88.1025 201.241C85.5508 205.661 87.0739 211.345 91.4936 213.897L159.217 252.997C160.463 253.717 162.072 253.286 162.792 252.039C163.512 250.792 163.08 249.184 161.834 248.464L94.0881 209.351C92.1973 208.229 91.5363 205.762 92.6355 203.858Z" fill="#E5E483" fill-opacity="0.2"/>
<path d="M275.72 214.098C275.694 214.143 275.704 214.179 275.691 214.201C275.704 214.179 275.707 214.12 275.72 214.098ZM209.397 187.229C214 187.318 218.296 186.262 221.723 184.252C222.555 184.067 223.252 183.593 223.716 182.894C223.888 182.752 224.097 182.6 224.27 182.458L224.043 182.328C224.887 180.76 224.302 178.79 222.738 177.887C221.242 177.024 219.341 177.437 218.342 178.855L218.296 178.829C214.43 180.343 210.322 180.601 205.839 179.886C201.356 179.172 196.436 177.54 191.314 174.582C186.01 171.52 182.215 167.939 179.058 163.88C175.943 159.906 174.183 155.052 174.004 150.023C173.844 145.065 174.962 140.512 177.54 136.047C180.183 131.469 183.877 127.739 188.364 124.679C192.731 121.669 197.903 120.092 203.2 120.129C208.582 120.123 213.9 121.592 219.679 124.928C226.501 128.867 230.794 133.733 232.586 139.422C234.379 145.111 233 150.117 230.003 155.307C228.328 158.208 226.356 160.786 223.461 162.711C220.567 164.637 218.402 165.351 215.297 165.704C212.981 165.999 208.53 165.333 207.488 164.731C207.148 164.535 206.932 164.228 206.839 163.813C206.734 163.419 206.856 162.946 207.157 162.425C207.788 161.489 208.509 160.606 209.299 159.763L224.566 144.311C225.028 144.033 225.458 143.707 225.746 143.209L225.802 143.06L225.877 142.982L225.854 142.969L225.867 142.946C226.744 141.428 226.194 139.448 224.653 138.559C223.905 138.127 223.046 137.993 222.201 138.2C221.378 138.421 220.656 138.94 220.224 139.688L220.102 139.95C219.998 140.132 219.974 140.33 219.928 140.515L219.018 141.41C218.867 137.484 215.626 133.256 211.796 131.045C208.555 129.174 202.409 128.617 196.182 131.761C191.497 134.223 187.527 137.854 184.715 142.305C182.263 146.239 181.41 150.491 182.357 154.241C183.304 157.991 185.777 160.356 187.568 161.39C190.854 163.287 194.472 163.774 198.374 162.824C197.996 164.056 198.081 165.374 198.621 166.532C199.152 167.654 200.306 168.744 202.096 169.777C208.692 173.585 216.755 173.647 222.779 170.96C227.921 168.701 232.579 164.349 235.681 158.978C238.285 154.467 239.967 149.878 239.944 144.788C239.921 139.698 238.767 135.103 235.765 130.619C232.762 126.136 228.582 122.332 223.188 119.218C216.841 115.554 210.429 113.574 204.01 113.283C197.59 112.991 191.467 114.594 185.69 118.058C179.877 121.531 175.269 126.214 171.84 132.152C168.772 137.362 167.094 143.253 166.953 149.306C166.757 155.509 168.632 161.578 172.245 166.626C176.029 171.953 181.423 176.639 188.495 180.721C195.747 184.909 202.733 187.099 209.397 187.229ZM205.888 152.898C203.623 154.884 201.562 156.203 199.683 156.84C198.367 157.289 197.171 157.475 196.129 157.448C194.724 157.422 193.669 157.417 192.445 156.711C190.813 155.769 189.117 153.943 188.762 152.046C188.384 150.135 188.979 147.849 190.523 145.175C191.674 143.18 194.051 141.471 196.337 139.345C198.622 137.219 200.559 136.585 202.934 136.082C205.31 135.58 206.96 136.019 208.796 137.079C210.518 138.074 212.044 139.619 212.421 141.53C212.822 143.453 212.949 144.856 211.575 147.236C210.38 149.357 208.13 150.899 205.888 152.898Z" fill="#B2B377"/>
<path d="M275.69 214.202C275.717 214.157 275.707 214.121 275.72 214.098C277.7 206.115 273.086 199.19 268.945 192.962L268.881 192.864L259.699 180.189L288.369 130.53L175.306 66.0083L146.976 115.078L131.525 113.471C122.866 112.189 112.18 112.063 106.266 122.308L61.107 200.525C55.7419 209.818 58.9414 221.758 68.2341 227.123L201.958 304.329C211.25 309.694 223.191 306.494 228.556 297.202L273.715 218.985C274.657 217.353 275.304 215.762 275.69 214.202ZM253.954 190.139L260.278 198.867C262.903 202.8 264.465 205.485 265.219 207.582L244.218 207.002L253.954 190.139ZM154.393 123.168L179.164 80.2632L274.043 134.407L232.326 206.663L173.129 205.033C171.315 204.982 169.637 204.014 168.687 202.468L137.696 152.089L154.393 123.168ZM141.244 125.005L131.456 141.959L120.273 123.747C122.476 123.175 141.244 125.005 141.244 125.005ZM219.49 291.968C217.004 296.274 211.498 297.749 207.192 295.263L73.4683 218.057C69.162 215.571 67.6868 210.066 70.173 205.759L112.898 131.758L159.716 207.956C161.114 210.245 163.044 212.084 165.311 213.393C167.555 214.688 170.112 215.44 172.816 215.52L262.215 217.966L219.49 291.968Z" fill="#B2B377"/>
</g>
<defs>
<clipPath id="clip0_59_1091">
<rect width="267.994" height="267.994" fill="white" transform="translate(133.997) rotate(30)"/>
</clipPath>
</defs>
</svg>
