<svg width="315" height="315" viewBox="0 0 315 315" fill="none" xmlns="http://www.w3.org/2000/svg">
<path d="M242.813 275.625C130.457 275.625 39.375 184.543 39.375 72.1875C39.375 67.1184 39.5601 62.0925 39.9249 57.1163C40.3436 51.4056 40.5523 48.5502 42.0486 45.951C43.2876 43.7983 45.4847 41.7567 47.7225 40.6777C50.4236 39.375 53.5749 39.375 59.8763 39.375L96.8533 39.375C102.153 39.375 104.803 39.375 107.074 40.2472C109.081 41.0176 110.867 42.2689 112.277 43.8913C113.873 45.7279 114.778 48.2181 116.589 53.1984L131.894 95.2882C134.001 101.083 135.055 103.98 134.876 106.729C134.719 109.152 133.891 111.485 132.486 113.466C130.894 115.714 128.251 117.3 122.963 120.472L105 131.25C120.751 166.03 148.983 194.225 183.75 210L194.528 192.037C197.7 186.749 199.286 184.106 201.534 182.514C203.515 181.109 205.848 180.281 208.271 180.124C211.02 179.945 213.917 180.999 219.712 183.106L261.802 198.411C266.782 200.222 269.272 201.127 271.109 202.723C272.731 204.133 273.982 205.919 274.753 207.926C275.625 210.197 275.625 212.847 275.625 218.147L275.625 255.124C275.625 261.425 275.625 264.576 274.322 267.278C273.243 269.515 271.202 271.712 269.049 272.951C266.45 274.448 263.594 274.656 257.884 275.075C252.907 275.44 247.882 275.625 242.813 275.625Z" stroke="#B2B377" stroke-width="8.33333" stroke-linecap="round" stroke-linejoin="round"/>
</svg>
