<svg width="71" height="52" viewBox="0 0 71 52" fill="none" xmlns="http://www.w3.org/2000/svg">
<path d="M2.03501 19.4249C2.97265 18.4876 4.24419 17.961 5.57001 17.961C6.89583 17.961 8.16737 18.4876 9.10501 19.4249L26.785 37.1049L62.135 1.74995C62.5992 1.2854 63.1504 0.916831 63.7571 0.665292C64.3637 0.413753 65.014 0.284168 65.6707 0.283936C66.3275 0.283704 66.9778 0.412829 67.5847 0.663939C68.1915 0.915049 68.743 1.28323 69.2075 1.74745C69.6721 2.21167 70.0406 2.76285 70.2922 3.36951C70.5437 3.97617 70.6733 4.62644 70.6735 5.28318C70.6738 5.93992 70.5446 6.59028 70.2935 7.19712C70.0424 7.80396 69.6742 8.3554 69.21 8.81995L26.785 51.2449L2.03501 26.4949C1.09765 25.5573 0.571075 24.2858 0.571075 22.9599C0.571075 21.6341 1.09765 20.3626 2.03501 19.4249Z" fill="#B2B377" stroke="#B2B377" stroke-width="0.078125"/>
</svg>
