<svg width="40" height="40" viewBox="0 0 40 40" fill="none" xmlns="http://www.w3.org/2000/svg">
<path d="M10.0233 13.3436C10.2138 11.8373 12.1713 9.79023 13.7248 10.0174L13.7223 10.0149C15.2342 10.3022 16.431 12.9043 17.1058 14.0744C17.584 14.9234 17.2735 15.7835 16.8275 16.1465C16.2258 16.6314 15.285 17.3005 15.4824 17.9723C15.8333 19.1667 20 23.3333 22.0493 24.5178C22.825 24.9662 23.3875 23.7837 23.8678 23.1778C24.2168 22.7118 25.0777 22.4333 25.9247 22.8933C27.1897 23.63 28.3813 24.4862 29.4833 25.45C30.0337 25.91 30.1628 26.5898 29.7815 27.3083C29.1098 28.5738 27.1672 30.2427 25.757 29.9035C23.294 29.3113 13.3333 25.45 10.1339 14.2634C9.95395 13.7341 9.99925 13.5341 10.0233 13.3436Z" fill="#B2B377"/>
<path fill-rule="evenodd" clip-rule="evenodd" d="M20 38.3337C17.9607 38.3337 16.8324 38.1148 15 37.5003L11.4907 39.255C9.27439 40.3632 6.66669 38.7515 6.66669 36.2735V32.5003C3.0776 29.1537 1.66669 25.2948 1.66669 20.0003C1.66669 9.87511 9.8748 1.66699 20 1.66699C30.1252 1.66699 38.3334 9.87511 38.3334 20.0003C38.3334 30.1255 30.1252 38.3337 20 38.3337ZM10 31.0508L8.93994 30.0623C6.15147 27.4623 5.00002 24.5555 5.00002 20.0003C5.00002 11.7161 11.7158 5.00033 20 5.00033C28.2844 5.00033 35 11.7161 35 20.0003C35 28.2847 28.2844 35.0003 20 35.0003C18.3572 35.0003 17.5867 34.852 16.0599 34.34L14.7475 33.8998L10 36.2735V31.0508Z" fill="#B2B377"/>
</svg>
